<svg xmlns="http://www.w3.org/2000/svg" viewBox="0 0 640 480"><path fill="#f93" d="M0 0h640v480H0z"/><g fill="#fff"><circle cx="266.5" cy="241" r="80"/></g><g fill="#128a17"><circle cx="266.5" cy="241" r="60"/></g><g fill="#fff"><circle cx="266.5" cy="241" r="40"/></g><g fill="#128a17"><circle cx="266.5" cy="241" r="20"/></g><g fill="#f93"><circle cx="424" cy="160" r="40"/><circle cx="520" cy="240" r="40"/><circle cx="424" cy="320" r="40"/><circle cx="340" cy="120" r="40"/><circle cx="520" cy="240" r="40"/><circle cx="340" cy="360" r="40"/><circle cx="266.5" cy="241" r="100"/></g><g fill="#fff"><circle cx="424" cy="160" r="20"/><circle cx="520" cy="240" r="20"/><circle cx="424" cy="320" r="20"/><circle cx="340" cy="120" r="20"/><circle cx="520" cy="240" r="20"/><circle cx="340" cy="360" r="20"/><circle cx="266.5" cy="241" r="60"/></g><g fill="#128a17"><circle cx="424" cy="160" r="10"/><circle cx="520" cy="240" r="10"/><circle cx="424" cy="320" r="10"/><circle cx="340" cy="120" r="10"/><circle cx="340" cy="360" r="10"/><circle cx="266.5" cy="241" r="30"/></g></svg>
