<svg xmlns="http://www.w3.org/2000/svg" viewBox="0 0 640 480"><g fill-rule="evenodd"><path fill="#bd3d44" d="M0 0h640v480H0z"/><path fill="#fff" d="M0 55.3h640V67.8H0zM0 110.6h640V123H0zM0 165.9h640v12.3H0zM0 221.2h640V233.5H0zM0 276.5h640v12.3H0zM0 331.8h640V344H0zM0 387.1h640v12.3H0zM0 442.4h640V454.7H0z"/><path fill="#192f5d" d="M0 0h264.6v270.3H0z"/><g fill="#fff"><path d="M88.4 13.5l8.5 26.1h27.4l-22.2 16.2 8.5 26.1L88.4 65.8l-22.2 16.2 8.5-26.1-22.2-16.2h27.4zm-54.8 97.2l8.5 26.1h27.4l-22.2 16.2 8.5 26.1-22.2-16.2-22.2 16.2 8.5-26.1-22.2-16.2h27.4zm108.9 0l8.5 26.1h27.4l-22.2 16.2 8.5 26.1-22.2-16.2-22.2 16.2 8.5-26.1-22.2-16.2h27.4zm-54.8 97.2l8.5 26.1h27.4l-22.2 16.2 8.5 26.1-22.2-16.2-22.2 16.2 8.5-26.1-22.2-16.2h27.4z"/></g></g></svg>
